<?xml version="1.0" encoding="UTF-8"?>
<svg id="Layer_2" data-name="Layer 2" xmlns="http://www.w3.org/2000/svg" viewBox="0 0 91.63 135">
  <defs>
    <style>
      .cls-1 {
        fill: #7f8936;
      }

      .cls-1, .cls-2, .cls-3, .cls-4, .cls-5, .cls-6, .cls-7, .cls-8, .cls-9, .cls-10 {
        fill-rule: evenodd;
        stroke-width: 0px;
      }

      .cls-2 {
        fill: #c6d57b;
      }

      .cls-3 {
        fill: #fcf7e6;
      }

      .cls-4 {
        fill: #85762e;
      }

      .cls-5 {
        fill: #637432;
      }

      .cls-6 {
        fill: #a7b939;
      }

      .cls-7 {
        fill: #fff;
      }

      .cls-8 {
        fill: #889b3a;
      }

      .cls-9 {
        fill: #718336;
      }

      .cls-10 {
        fill: #685c26;
      }

      #avocad-leaf {
        transform-origin: 20% 15%;
      }

      #avocad:hover #avocad-leaf {
        animation: wiggle 0.8s ease-in-out infinite;
      }

      #avocad-pit {
        transform-origin: 65% 70%;
        transition: all 0.8s ease-in-out;
      }

      #avocad:hover #avocad-pit {
        transform: rotate(185deg);
      }

      @keyframes wiggle {
        0% {transform: rotate(0);}
        25% {transform: rotate(15deg);}
        50% {transform: rotate(-15deg);}
        75% {transform: rotate(0);}
      }
    </style>

    <script>
      
    </script>
  </defs>
  <g id="Layer_1-2" data-name="Layer 1">
    <g id="avocad">
      <g id="avocad-fruit">
        <path id="avocad-branch" class="cls-10" d="M2.63,39.87C1.18,39.86,0,38.69,0,37.24,0,35.79,1.18,34.61,2.63,34.61c.04,0,13.89-.23,21.95,19.43.55,1.34-.09,2.87-1.44,3.42-1.34.55-2.87-.1-3.42-1.44C13.02,39.68,2.66,39.87,2.63,39.87Z"/>
        <path id="avocad-fruit-3" class="cls-9" d="M18.08,81.26c11.05,10.46-.31,21.67,11.37,39.72,11.69,18.05,38.02,18.81,53.15,1.42,1.7-1.95,3.16-4,4.38-6.13,8.36-14.55,5.48-32.33-8.86-42.31-10.94-7.61-21.29-2.77-30.66-14.84-5.96-7.67-16.64-23.47-30.4-14.75-14.22,9.02-10.13,26.32,1.02,36.88Z"/>
        <path id="avocad-fruit-2" class="cls-8" d="M88.94,112.32c5.79-13.7,2.24-29.26-10.83-38.35-10.94-7.61-21.29-2.77-30.66-14.84-5.96-7.67-16.64-23.47-30.4-14.75-2.28,1.44-4.08,3.1-5.47,4.91-2.81,8.81.84,20.06,9.03,26.85,19.02,15.76,5.96,21.64,14.33,37.11s35.31,21.22,50.44,3.83c1.33-1.53,2.52-3.13,3.55-4.77Z"/>
        <path id="avocad-fruit-1" class="cls-2" d="M23.93,74.25c7.33,6.86,11.44,13.44,11.61,23.61.46,26.93,31.39,34.15,44.98,18.53,10.77-12.38,10.61-30.29-3.43-40.06-4.7-3.27-9.7-3.76-15.06-5.15-7.34-1.9-12.63-5.09-17.34-11.15-2.64-3.4-5.15-6.87-8.22-9.91-2.09-2.06-4.89-4.36-7.81-5.05-2.44-.58-4.59.11-6.67,1.43-3.08,1.95-5.39,4.65-6.14,8.28-1.46,7.06,3.1,14.82,8.07,19.47Z"/>
        <path id="avocad-hf1" class="cls-7" d="M26.84,49.39c-.44-.01-.78-.38-.76-.82.02-.44.38-.78.82-.76,1.77.06,3.44.53,5.58,2.19,2.04,1.57,4.53,4.25,8.04,8.75,1.37,1.75,2.59,3.21,3.68,4.41,1.3,1.43,2.39,2.5,3.28,3.29.33.29.36.79.07,1.11-.29.33-.79.36-1.12.07-.92-.82-2.06-1.92-3.41-3.41-1.1-1.22-2.35-2.7-3.75-4.5-3.42-4.39-5.83-6.98-7.76-8.47-1.83-1.41-3.21-1.81-4.67-1.86ZM85.33,96.37c0,4.63-1.27,9.64-3.27,13.27-.21.38-.07.86.31,1.07.38.21.86.07,1.07-.31,2.12-3.85,3.47-9.14,3.47-14.03,0-4.35-1.07-8.4-3.61-10.89-.31-.3-.81-.3-1.11.01-.3.31-.3.81,0,1.11,2.21,2.17,3.13,5.81,3.14,9.77Z"/>
      </g>
      <g id="avocad-pit">
        <path id="avocad-pit-2" class="cls-10" d="M47.86,82.68c6.14-5.8,16.44-4.86,23,2.09,6.56,6.95,6.9,17.29.75,23.08-6.14,5.8-16.44,4.86-23-2.09-6.56-6.95-6.9-17.29-.75-23.09Z"/>
        <path id="avocad-pit-1" class="cls-4" d="M48.02,82.54c6.16-5.63,16.34-4.66,22.84,2.24,4.79,5.08,6.26,11.96,4.31,17.56-6.16,5.63-16.34,4.66-22.84-2.24-4.79-5.08-6.26-11.96-4.31-17.56Z"/>
        <path id="avocad-hp1" class="cls-3" d="M58.09,83.31c-.42.12-.85-.13-.97-.55-.12-.42.13-.85.55-.97.47-.13,1.07-.19,1.75-.17,2,.07,4.88.86,7.49,2.54,2.63,1.69,5.02,4.28,6.04,7.93.38,1.35.57,2.85.51,4.5-.02.43-.38.77-.82.76-.44-.02-.78-.38-.76-.82.05-1.48-.12-2.82-.45-4.03-.9-3.23-3.03-5.52-5.37-7.02-2.36-1.52-4.93-2.23-6.7-2.29-.52-.02-.95.02-1.27.11h0ZM71.87,98.91c.09-.43.51-.69.94-.6.43.09.69.51.6.94-.11.51-.16.76-.21.97-.13.64-.19.94-.56,2.17-.12.42-.56.66-.98.53-.42-.12-.65-.56-.53-.98.35-1.17.41-1.45.53-2.03.06-.29.13-.63.21-.99Z"/>
      </g>
      <g id="avocad-leaf">
        <path id="avocad-leaf-2" class="cls-5" d="M19.12,17.76C26.43,11.12,30.22,1.15,31.35.21c.33-.28.73-.38,1.06.39,11.52,27.04-6.43,42.38-14.15,38.98-7.05-6.92-5.5-14.82.87-21.82Z"/>
        <path id="avocad-leaf-1" class="cls-1" d="M19.12,17.76C26.43,11.12,30.22,1.15,31.35.21c.07-.06.14-.11.21-.14,2.26,16.56-5.75,33.33-12.89,39.68-.14-.05-.28-.1-.42-.16-7.06-6.92-5.5-14.82.87-21.82Z"/>
        <path id="avocad-leaf-vein" class="cls-6" d="M35.14,17.86c.33-.29.36-.78.07-1.11-.29-.33-.78-.36-1.11-.07-1.16,1.02-2.87,1.45-3.82,1.62,1.09-4.13,1.92-8.95,2.26-14.55.03-.43-.3-.81-.74-.83-.43-.03-.81.3-.83.74-.31,5.04-1.02,9.43-1.95,13.23-1.46-1.52-2.01-3.93-2.02-3.94-.1-.42-.53-.68-.95-.58-.42.1-.68.53-.58.95,0,.01.76,3.28,2.86,5.09.08.07.17.11.26.15-.91,3.32-1.98,6.15-3.08,8.53-1-1.63-3.18-5.63-3.14-9.4,0-.43-.35-.79-.78-.79-.43,0-.79.34-.79.78-.05,5.37,3.89,11.05,3.91,11.08-1.44,2.82-2.88,4.89-4.01,6.3-.85-1.3-3.04-5.02-3-8.95,0-.43-.35-.79-.78-.79-.43,0-.79.34-.79.78-.05,4.83,2.88,9.31,3.51,10.21-.72.79-1.17,1.17-1.18,1.18-.33.28-.37.78-.08,1.11.28.33.78.37,1.11.08.01-.01,2.26-1.9,4.9-6.19.02,0,.04,0,.06,0,.02,0,5.31-.45,8.5-3.24.33-.29.36-.78.07-1.11-.29-.33-.78-.36-1.11-.07-1.97,1.72-4.94,2.43-6.52,2.7,1.54-2.77,3.12-6.34,4.42-10.79.6-.07,3.46-.47,5.32-2.1Z"/>
      </g>
    </g>
  </g>
</svg>