<?xml version="1.0" encoding="UTF-8"?>
<svg id="Layer_2" data-name="Layer 2" xmlns="http://www.w3.org/2000/svg" viewBox="0 0 138.11 203.49">
  <defs>
    <style>
      .cls-1 {
        fill: #7f8936;
      }

      .cls-1, .cls-2, .cls-3, .cls-4, .cls-5, .cls-6, .cls-7, .cls-8, .cls-9, .cls-10 {
        fill-rule: evenodd;
        stroke-width: 0px;
      }

      .cls-2 {
        fill: #c6d57b;
      }

      .cls-3 {
        fill: #fcf7e6;
      }

      .cls-4 {
        fill: #85762e;
      }

      .cls-5 {
        fill: #637432;
      }

      .cls-6 {
        fill: #a7b939;
      }

      .cls-7 {
        fill: #fff;
      }

      .cls-8 {
        fill: #889b3a;
      }

      .cls-9 {
        fill: #718336;
      }

      .cls-10 {
        fill: #685c26;
      }
    </style>
  </defs>
  <g id="Layer_1-2" data-name="Layer 1">
    <g id="avocad">
      <g id="avocad-fruit">
        <path id="avocad-branch" class="cls-10" d="M3.96,60.09C1.77,60.09,0,58.32,0,56.13,0,53.94,1.77,52.17,3.96,52.17c.06,0,20.94-.34,33.08,29.29.83,2.02-.14,4.33-2.16,5.15-2.02.83-4.33-.14-5.15-2.17C19.63,59.81,4,60.09,3.96,60.09Z"/>
        <path id="avocad-fruit-3" class="cls-9" d="M27.25,122.49c16.65,15.76-.47,32.66,17.15,59.87,17.62,27.21,57.3,28.35,80.11,2.14,2.56-2.94,4.76-6.04,6.59-9.23,12.6-21.93,8.26-48.73-13.36-63.78-16.49-11.48-32.09-4.17-46.22-22.36-8.98-11.57-25.09-35.38-45.82-22.23-21.44,13.6-15.27,39.68,1.54,55.59Z"/>
        <path id="avocad-fruit-2" class="cls-8" d="M134.06,169.3c8.72-20.64,3.37-44.1-16.32-57.81-16.49-11.48-32.09-4.17-46.22-22.36-8.98-11.57-25.09-35.38-45.82-22.23-3.43,2.18-6.15,4.68-8.24,7.4-4.24,13.28,1.26,30.24,13.61,40.47,28.67,23.75,8.99,32.62,21.6,55.94,12.61,23.32,53.22,31.99,76.02,5.77,2.01-2.31,3.79-4.72,5.36-7.19Z"/>
        <path id="avocad-fruit-1" class="cls-2" d="M36.07,111.91c11.05,10.34,17.24,20.26,17.5,35.58.7,40.6,47.32,51.48,67.8,27.93,16.24-18.67,15.99-45.65-5.16-60.38-7.08-4.93-14.62-5.66-22.71-7.76-11.06-2.87-19.04-7.68-26.14-16.81-3.98-5.12-7.76-10.35-12.39-14.93-3.15-3.11-7.37-6.58-11.76-7.62-3.68-.87-6.92.17-10.06,2.15-4.64,2.95-8.12,7-9.25,12.48-2.19,10.64,4.68,22.34,12.17,29.35Z"/>
        <path id="avocad-hf1" class="cls-7" d="M40.46,74.44c-.66-.02-1.17-.57-1.15-1.23.02-.66.57-1.17,1.23-1.15,2.68.09,5.18.8,8.42,3.3,3.07,2.37,6.82,6.4,12.11,13.19,2.06,2.64,3.91,4.83,5.55,6.64,1.95,2.16,3.6,3.77,4.95,4.96.49.44.54,1.19.1,1.68-.44.49-1.19.54-1.68.1-1.39-1.23-3.1-2.9-5.13-5.14-1.66-1.83-3.54-4.07-5.66-6.78-5.16-6.62-8.78-10.52-11.7-12.77-2.75-2.13-4.84-2.73-7.04-2.81ZM128.62,145.26c0,6.98-1.92,14.54-4.93,20-.31.58-.1,1.3.47,1.61.58.31,1.3.1,1.61-.47,3.19-5.8,5.23-13.78,5.22-21.14,0-6.55-1.61-12.65-5.44-16.42-.47-.46-1.22-.45-1.67.02-.46.47-.45,1.22.01,1.68,3.32,3.27,4.72,8.76,4.73,14.72Z"/>
      </g>
      <g id="avocad-pit">
        <path id="avocad-pit-2" class="cls-10" d="M72.14,124.63c9.26-8.74,24.78-7.33,34.67,3.15,9.89,10.48,10.4,26.06,1.14,34.8-9.26,8.74-24.78,7.33-34.67-3.15-9.89-10.48-10.4-26.06-1.14-34.8Z"/>
        <path id="avocad-pit-1" class="cls-4" d="M72.38,124.41c9.29-8.49,24.63-7.02,34.43,3.37,7.22,7.65,9.44,18.03,6.5,26.47-9.29,8.49-24.63,7.02-34.43-3.37-7.22-7.65-9.44-18.03-6.5-26.47Z"/>
        <path id="avocad-hp1" class="cls-3" d="M87.56,125.57c-.63.17-1.29-.2-1.46-.83-.17-.63.2-1.29.83-1.46.72-.2,1.61-.29,2.64-.25,3.02.11,7.36,1.3,11.3,3.83,3.97,2.54,7.57,6.44,9.11,11.95.57,2.04.86,4.3.77,6.79-.02.66-.57,1.17-1.23,1.15-.66-.02-1.17-.58-1.14-1.23.08-2.23-.18-4.25-.68-6.07-1.36-4.86-4.56-8.32-8.1-10.59-3.56-2.29-7.43-3.36-10.1-3.46-.78-.03-1.43.03-1.92.16h0ZM108.33,149.09c.14-.64.78-1.05,1.42-.91.64.14,1.05.77.91,1.42-.17.77-.25,1.14-.31,1.46-.2.96-.29,1.42-.84,3.27-.18.63-.85.99-1.48.8-.63-.19-.99-.85-.8-1.48.53-1.77.61-2.19.79-3.06.09-.43.2-.96.32-1.5Z"/>
      </g>
      <g id="avocad-leaf">
        <path id="avocad-leaf-2" class="cls-5" d="M28.83,26.77C39.84,16.77,45.55,1.73,47.26.31c.5-.42,1.09-.58,1.59.59,17.36,40.76-9.69,63.88-21.33,58.75-10.63-10.44-8.3-22.34,1.3-32.89Z"/>
        <path id="avocad-leaf-1" class="cls-1" d="M28.83,26.77C39.84,16.77,45.55,1.73,47.26.31c.1-.09.21-.16.32-.22,3.41,24.96-8.67,50.25-19.43,59.8-.21-.07-.42-.15-.63-.24-10.63-10.44-8.3-22.34,1.3-32.89Z"/>
        <path id="avocad-leaf-vein" class="cls-6" d="M52.97,26.92c.49-.43.54-1.18.11-1.67-.43-.49-1.18-.54-1.67-.11-1.75,1.53-4.32,2.19-5.76,2.45,1.64-6.22,2.89-13.49,3.41-21.93.04-.65-.46-1.22-1.11-1.25-.65-.04-1.22.46-1.25,1.11-.47,7.6-1.54,14.21-2.94,19.94-2.19-2.29-3.04-5.93-3.04-5.94-.15-.64-.79-1.03-1.43-.88-.64.15-1.03.79-.88,1.43,0,.02,1.14,4.94,4.31,7.67.12.1.25.17.39.22-1.37,5-2.98,9.27-4.64,12.85-1.51-2.46-4.79-8.49-4.74-14.17,0-.65-.52-1.19-1.18-1.2-.65,0-1.19.52-1.2,1.18-.08,8.1,5.86,16.65,5.9,16.7-2.18,4.25-4.34,7.37-6.04,9.5-1.29-1.96-4.58-7.57-4.52-13.49,0-.66-.52-1.19-1.18-1.2-.65,0-1.19.52-1.2,1.17-.08,7.27,4.35,14.03,5.29,15.39-1.09,1.19-1.77,1.77-1.78,1.78-.5.43-.55,1.18-.12,1.67.43.5,1.18.55,1.67.12.02-.02,3.41-2.87,7.39-9.32.03,0,.05.01.08,0,.02,0,8-.67,12.81-4.88.49-.43.54-1.18.11-1.67-.43-.49-1.18-.54-1.67-.11-2.98,2.6-7.44,3.66-9.82,4.07,2.31-4.18,4.71-9.55,6.67-16.27.91-.1,5.21-.71,8.02-3.17Z"/>
      </g>
    </g>
  </g>
</svg>