<?xml version="1.0" encoding="UTF-8"?>
<svg id="Layer_2" data-name="Layer 2" xmlns="http://www.w3.org/2000/svg" viewBox="0 0 117.78 135">
  <defs>
    <style>
      .cls-1 {
        fill: #7f8936;
      }

      .cls-1, .cls-2, .cls-3, .cls-4, .cls-5, .cls-6, .cls-7 {
        fill-rule: evenodd;
        stroke-width: 0px;
      }

      .cls-2 {
        fill: #fcf7e6;
      }

      .cls-3 {
        fill: #c33627;
      }

      .cls-4 {
        fill: #637432;
      }

      .cls-5 {
        fill: #a7b939;
      }

      .cls-6 {
        fill: #685c26;
      }

      .cls-7 {
        fill: #ca4e28;
      }
    </style>
  </defs>
  <g id="Layer_1-2" data-name="Layer 1">
    <g id="cherry">
      <path id="cherry-branch-0" class="cls-6" d="M54.27,40.49c.69,1.26.22,2.84-1.04,3.53-1.26.69-2.84.22-3.53-1.04,0-.01-2.31-4.14-3.87-15.42-.2-1.43.8-2.74,2.23-2.93,1.42-.2,2.74.8,2.93,2.22,1.43,10.32,3.28,13.63,3.29,13.64Z"/>
      <g id="cherry-leaf2">
        <path id="cherry-leaf2-2" class="cls-4" d="M24.75,53.8c-10.54-4.09-22.7-2.86-24.25-3.53-.46-.2-.76-.55-.14-1.28,21.81-25.66,46.72-15.14,47.19-5.48-3.48,10.78-12.36,13.24-22.8,10.3Z"/>
        <path id="cherry-leaf2-1" class="cls-1" d="M24.75,53.8c-10.54-4.09-22.7-2.86-24.25-3.53-.09-.04-.18-.09-.26-.15,15.81-10.81,37.11-11.19,47.26-7.13.02.17.04.34.05.51-3.48,10.78-12.36,13.24-22.8,10.3Z"/>
        <path id="cherry-leaf2-vein" class="cls-5" d="M28.24,34.24c-.19.46.03.99.49,1.18,2.78,1.14,5.02,3.81,6.11,5.3-3.63-.15-8.1.05-13.33,1-.38-.58-2.26-3.3-4.88-4.38-.46-.19-.99.03-1.18.5-.19.46.03.99.49,1.17,1.64.67,2.96,2.19,3.62,3.09-4.78,1-10.16,2.62-16.07,5.14-.46.2-.67.73-.47,1.18.2.46.73.67,1.18.48,5.32-2.26,10.17-3.78,14.53-4.78-.81,2.27-2.98,4.08-2.98,4.08-.38.32-.43.89-.11,1.27s.89.43,1.27.11c0,0,2.97-2.45,3.75-5.54.03-.12.03-.23.02-.34,3.86-.77,7.31-1.12,10.31-1.21-1.16,1.86-4.14,6.15-8.03,8.04-.45.22-.63.76-.41,1.21.22.45.76.63,1.21.41,5.53-2.7,9.33-9.65,9.35-9.69,3.63.03,6.48.44,8.52.88-.9,1.54-3.59,5.69-7.63,7.66-.45.22-.63.76-.41,1.21.22.45.76.63,1.21.42,4.97-2.42,8.06-7.73,8.66-8.83,1.18.33,1.8.6,1.81.6.46.19.99-.03,1.18-.49.19-.46-.03-.99-.49-1.18-.02,0-3.11-1.34-8.85-1.85-.01-.02-.01-.04-.02-.06,0-.01-3.18-5.21-7.68-7.05-.46-.19-.99.03-1.17.49Z"/>
      </g>
      <g id="cherry-leaf1">
        <path id="cherry-leaf1-2" class="cls-4" d="M76.15,24.62c-.06-11.31,5.43-22.23,5.35-23.92-.02-.5-.24-.91-1.15-.59-31.75,11.23-30.8,38.25-21.95,42.14,11.31.59,16.78-6.83,17.75-17.63Z"/>
        <path id="cherry-leaf1-1" class="cls-1" d="M76.15,24.62c-.06-11.31,5.43-22.23,5.35-23.92,0-.1-.02-.2-.04-.29-15.73,10.92-23.69,30.68-23.51,41.61.15.08.3.16.46.23,11.31.59,16.78-6.83,17.75-17.63Z"/>
        <path id="cherry-leaf1-vein" class="cls-5" d="M77.58,2.44c-4.46,4.63-7.88,9.07-10.53,13.18-.6-.94-1.55-2.7-1.59-4.48-.01-.5-.42-.89-.92-.88-.5.01-.89.42-.88.92.07,2.84,1.94,5.56,2.35,6.12-2.75,4.55-4.53,8.65-5.69,12.1-1-1.54-2.7-4.59-2.77-7.59-.01-.5-.42-.89-.92-.88-.5.01-.89.42-.88.92.12,4.86,3.84,9.67,3.85,9.69.01.02.03.03.05.04-1.57,5.55-1.43,8.91-1.42,8.93.01.5.43.89.93.88.5-.01.89-.43.88-.93,0,0-.03-.69.08-1.91,1.25-.17,7.3-1.16,11.34-4.94.36-.34.38-.91.04-1.27-.34-.36-.91-.38-1.27-.04-3.28,3.07-8.12,4.11-9.88,4.4.32-2.05.95-4.86,2.22-8.27.05,0,7.89-1.07,12.39-5.28.36-.34.38-.91.04-1.28-.34-.36-.91-.38-1.27-.04-3.15,2.95-8.22,4.21-10.37,4.63,1.16-2.77,2.72-5.86,4.81-9.2.1.05.21.09.32.11,3.16.37,6.5-1.52,6.51-1.53.44-.24.59-.79.35-1.23-.24-.44-.79-.59-1.23-.35,0,0-2.48,1.4-4.89,1.35,2.49-3.73,5.64-7.73,9.65-11.89.35-.36.34-.93-.02-1.28-.36-.35-.93-.34-1.28.02Z"/>
      </g>
      <g id="cherry-fruit1">
        <path id="cherry-branch-1" class="cls-6" d="M48.89,40.33c-.71-.96-.5-2.32.46-3.03.97-.71,2.32-.5,3.03.46.06.08,21.1,29.06,44.02,36.09,1.15.35,1.79,1.57,1.44,2.72-.35,1.15-1.57,1.79-2.72,1.44-24.3-7.46-46.18-37.6-46.24-37.68Z"/>
        <path id="cherry-fruit1-1" class="cls-7" d="M93.07,70.49c-.87,2.43-2.74,5.32-4.07,7.78-7.06,13.03,17.11,24.16,26.58,9.64,4.44-6.81,1.77-15.77-4.67-20.19-6.43-4.43-14.96-5.28-17.85,2.78Z"/>
        <path id="cherry-hf1" class="cls-2" d="M91.88,76.14c.42-.59,1.23-.72,1.82-.31.59.42.72,1.23.31,1.82-.83,1.16-1.36,2.24-1.63,3.25-.38,1.41-.26,2.68.22,3.78.5,1.14,1.38,2.13,2.52,2.95,1.17.84,2.58,1.48,4.1,1.89.69.19,1.1.9.91,1.6-.19.69-.9,1.1-1.6.91-1.82-.49-3.52-1.26-4.93-2.28-1.51-1.08-2.7-2.43-3.4-4.03-.71-1.63-.89-3.48-.34-5.51.35-1.3,1.01-2.66,2.02-4.07Z"/>
        <path id="cherry-fruit1-2" class="cls-3" d="M92.47,71.94c3.86-1.79,9.06-.42,13.33,2.52,5.59,3.85,8.34,11.12,6.05,17.43,1.39-1.02,2.66-2.34,3.74-4,4.44-6.81,1.77-15.77-4.67-20.19-6.43-4.43-14.96-5.28-17.85,2.78-.17.47-.38.96-.61,1.46Z"/>
      </g>
      <g id="cherry-fruit2">
        <path id="cherry-branch-2" class="cls-6" d="M70.71,110.24c.74.94.59,2.3-.35,3.05-.94.74-2.3.59-3.05-.35-.06-.07-20.22-25.02-18.85-73.96.03-1.19,1.03-2.14,2.23-2.1,1.2.04,2.14,1.03,2.1,2.23-1.33,47.33,17.85,71.07,17.91,71.14Z"/>
        <path id="cherry-fruit2-1" class="cls-7" d="M62.5,111.64c1.84-1.15,3.78-2.16,5.07-3.24,2.96-2.49,4.91-4.57,7.98-5.11,8.41-1.48,20.93,16.56,9.51,27.73-5.98,5.84-15.56,4.94-21.31-.66-5.75-5.6-8.72-14.05-1.25-18.72Z"/>
        <path id="cherry-hf2" class="cls-2" d="M62.82,115.63c.43-.58,1.24-.7,1.82-.27.58.43.7,1.24.27,1.82-.02.03,0,.02-.09.13-1.15,1.63-1.15,3.37-.44,5.01.78,1.82,2.39,3.56,4.29,4.97.06.04.19.14.39.28.59.42.73,1.23.32,1.82-.42.59-1.23.73-1.82.31-.08-.06-.22-.16-.44-.32-2.25-1.67-4.17-3.77-5.14-6.04-1.05-2.45-1.04-5.06.71-7.54l.13-.18Z"/>
        <path id="cherry-fruit2-2" class="cls-3" d="M85.06,131.02c11.42-11.17-1.11-29.21-9.51-27.73-1.29.23-2.39.73-3.45,1.42,7.25,4.04,13.71,17.59,4.46,26.63-1.54,1.5-3.31,2.56-5.2,3.21,4.76,1.15,9.94.14,13.7-3.53Z"/>
      </g>
    </g>
  </g>
</svg>