<?xml version="1.0" encoding="UTF-8"?>
<svg id="Layer_2" data-name="Layer 2" xmlns="http://www.w3.org/2000/svg" viewBox="0 0 123.14 107.43">
  <defs>
    <style>
      .cls-1 {
        fill: #7f8936;
      }

      .cls-1, .cls-2, .cls-3, .cls-4, .cls-5, .cls-6, .cls-7 {
        fill-rule: evenodd;
        stroke-width: 0px;
      }

      .cls-2 {
        fill: #fcf7e6;
      }

      .cls-3 {
        fill: #c33627;
      }

      .cls-4 {
        fill: #637432;
      }

      .cls-5 {
        fill: #a7b939;
      }

      .cls-6 {
        fill: #685c26;
      }

      .cls-7 {
        fill: #ca4e28;
      }
    </style>
  </defs>
  <g id="Layer_1-2" data-name="Layer 1">
    <g id="cherry">
      <path id="cherry-branch-0" class="cls-6" d="M86.2,49.5c-1.15.63-2.59.2-3.22-.95-.63-1.15-.21-2.59.95-3.22.01,0,3.77-2.11,14.06-3.53,1.3-.18,2.5.73,2.68,2.03.18,1.3-.73,2.5-2.03,2.68-9.42,1.31-12.43,2.99-12.44,3Z"/>
      <g id="cherry-leaf2">
        <path id="cherry-leaf2-2" class="cls-4" d="M74.06,22.57c3.73-9.62,2.61-20.71,3.22-22.12.18-.42.5-.7,1.17-.13,23.41,19.89,13.81,42.62,5,43.05-9.83-3.17-12.07-11.28-9.39-20.8Z"/>
        <path id="cherry-leaf2-1" class="cls-1" d="M74.06,22.57c3.73-9.62,2.61-20.71,3.22-22.12.04-.09.08-.17.13-.24,9.86,14.42,10.21,33.85,6.5,43.11-.16.02-.31.04-.46.04-9.83-3.17-12.07-11.28-9.39-20.8Z"/>
        <path id="cherry-leaf2-vein" class="cls-5" d="M91.9,25.76c-.42-.17-.9.03-1.07.45-1.04,2.54-3.48,4.58-4.83,5.57.14-3.31-.05-7.38-.91-12.16.53-.35,3.01-2.06,3.99-4.45.17-.42-.03-.9-.45-1.07-.42-.17-.9.03-1.07.45-.61,1.5-2,2.7-2.82,3.31-.91-4.36-2.39-9.26-4.69-14.66-.18-.42-.66-.61-1.08-.43-.42.18-.61.66-.43,1.08,2.06,4.85,3.45,9.28,4.36,13.26-2.07-.74-3.72-2.72-3.72-2.72-.29-.35-.81-.39-1.16-.1s-.39.81-.1,1.16c0,0,2.24,2.71,5.05,3.42.11.03.21.03.31.01.7,3.52,1.02,6.67,1.11,9.41-1.7-1.06-5.61-3.78-7.33-7.32-.2-.41-.69-.58-1.1-.38-.41.2-.58.69-.38,1.1,2.46,5.05,8.8,8.51,8.84,8.53-.03,3.31-.4,5.91-.8,7.77-1.41-.82-5.19-3.28-6.98-6.96-.2-.41-.69-.58-1.1-.38-.41.2-.58.69-.38,1.1,2.21,4.53,7.05,7.35,8.06,7.9-.3,1.08-.55,1.64-.55,1.65-.17.42.02.9.44,1.08.42.17.9-.02,1.08-.44,0-.02,1.23-2.84,1.69-8.07.02,0,.04,0,.06-.02.01,0,4.75-2.9,6.43-7,.17-.42-.03-.9-.45-1.07Z"/>
      </g>
      <g id="cherry-leaf1">
        <path id="cherry-leaf1-2" class="cls-4" d="M100.68,69.45c10.31-.05,20.28,4.95,21.82,4.88.46-.02.83-.22.54-1.05-10.24-28.96-34.89-28.09-38.43-20.02-.54,10.32,6.23,15.3,16.08,16.19Z"/>
        <path id="cherry-leaf1-1" class="cls-1" d="M100.68,69.45c10.31-.05,20.28,4.95,21.82,4.88.09,0,.19-.02.27-.04-9.96-14.35-27.98-21.61-37.96-21.45-.08.14-.15.28-.21.42-.54,10.32,6.23,15.3,16.08,16.19Z"/>
        <path id="cherry-leaf1-vein" class="cls-5" d="M120.91,70.76c-4.22-4.06-8.27-7.19-12.02-9.6.86-.54,2.46-1.41,4.09-1.45.45-.01.81-.39.8-.84-.01-.45-.39-.81-.84-.8-2.59.06-5.07,1.77-5.58,2.14-4.15-2.51-7.89-4.13-11.03-5.19,1.41-.91,4.19-2.46,6.93-2.53.46-.01.81-.39.8-.84,0-.45-.39-.81-.84-.8-4.43.11-8.82,3.5-8.84,3.51-.02.01-.02.03-.04.04-5.06-1.43-8.12-1.3-8.14-1.3-.46.01-.81.39-.8.85.01.45.39.81.85.8,0,0,.62-.03,1.74.08.15,1.14,1.06,6.66,4.51,10.34.31.33.83.35,1.16.04.33-.31.35-.83.04-1.16-2.8-2.99-3.75-7.4-4.01-9.01,1.87.29,4.44.87,7.54,2.02,0,.04.98,7.2,4.82,11.3.31.33.83.35,1.16.04.33-.31.35-.83.04-1.16-2.69-2.88-3.84-7.5-4.22-9.46,2.53,1.05,5.35,2.48,8.39,4.39-.05.09-.08.19-.1.3-.34,2.88,1.39,5.93,1.39,5.94.22.4.72.54,1.12.32.4-.22.54-.72.32-1.12,0,0-1.28-2.26-1.23-4.46,3.4,2.27,7.05,5.14,10.85,8.81.33.32.85.31,1.16-.02.32-.33.31-.85-.02-1.16Z"/>
      </g>
      <g id="cherry-fruit1">
        <path id="cherry-branch-1" class="cls-6" d="M86.35,44.59c.88-.65,2.12-.46,2.77.42.65.88.46,2.12-.42,2.77-.08.06-26.5,19.24-32.92,40.15-.32,1.05-1.43,1.64-2.48,1.32-1.05-.32-1.64-1.43-1.32-2.48,6.81-22.16,34.29-42.12,34.37-42.18Z"/>
        <path id="cherry-fruit1-1" class="cls-7" d="M58.84,84.89c-2.22-.8-4.85-2.5-7.09-3.71-11.89-6.44-22.03,15.6-8.79,24.25,6.21,4.05,14.38,1.61,18.42-4.26,4.04-5.87,4.82-13.64-2.54-16.28Z"/>
        <path id="cherry-hf1" class="cls-2" d="M53.68,83.81c.53.38.66,1.12.28,1.66-.38.53-1.12.66-1.66.28-1.06-.76-2.04-1.24-2.96-1.49-1.28-.35-2.44-.24-3.45.2-1.04.45-1.95,1.26-2.69,2.3-.76,1.07-1.35,2.36-1.72,3.74-.17.63-.82,1-1.46.83-.63-.17-1-.82-.83-1.46.45-1.66,1.15-3.21,2.08-4.49.98-1.37,2.22-2.46,3.67-3.1,1.49-.65,3.17-.81,5.02-.31,1.19.32,2.43.92,3.72,1.84Z"/>
        <path id="cherry-fruit1-2" class="cls-3" d="M57.51,84.34c1.63,3.52.38,8.26-2.3,12.16-3.51,5.1-10.15,7.61-15.9,5.52.93,1.27,2.14,2.43,3.64,3.41,6.21,4.05,14.38,1.61,18.42-4.26,4.04-5.87,4.82-13.64-2.54-16.28-.43-.15-.87-.34-1.33-.55Z"/>
      </g>
      <g id="cherry-fruit2">
        <path id="cherry-branch-2" class="cls-6" d="M22.58,64.5c-.86.68-2.1.54-2.78-.32-.68-.86-.54-2.1.32-2.78.07-.05,22.83-18.44,67.46-17.19,1.09.03,1.95.94,1.92,2.03-.03,1.09-.94,1.95-2.03,1.92-43.17-1.21-64.82,16.29-64.88,16.34Z"/>
        <path id="cherry-fruit2-1" class="cls-7" d="M21.31,57.01c1.05,1.67,1.97,3.45,2.96,4.62,2.27,2.7,4.17,4.48,4.66,7.28,1.35,7.67-15.11,19.09-25.29,8.68-5.33-5.45-4.51-14.19.6-19.44,5.11-5.25,12.81-7.95,17.07-1.14Z"/>
        <path id="cherry-hf2" class="cls-2" d="M17.67,57.3c.53.39.63,1.13.25,1.66-.39.53-1.13.64-1.66.25-.02-.02-.01,0-.12-.08-1.49-1.05-3.07-1.05-4.57-.4-1.66.71-3.25,2.18-4.54,3.91-.04.05-.13.17-.25.35-.38.54-1.12.67-1.66.29-.54-.38-.67-1.12-.29-1.66.05-.07.15-.21.29-.4,1.53-2.05,3.44-3.8,5.51-4.69,2.24-.96,4.62-.95,6.88.65l.16.12Z"/>
        <path id="cherry-fruit2-2" class="cls-3" d="M3.63,77.59c10.19,10.41,26.64-1.01,25.29-8.68-.21-1.18-.66-2.18-1.29-3.14-3.69,6.62-16.05,12.5-24.29,4.07-1.37-1.4-2.34-3.02-2.92-4.74-1.05,4.34-.13,9.07,3.22,12.5Z"/>
      </g>
    </g>
  </g>
</svg>