<?xml version="1.0" encoding="UTF-8"?>
<svg id="Layer_2" data-name="Layer 2" xmlns="http://www.w3.org/2000/svg" viewBox="0 0 103.92 102.44">
  <defs>
    <style>
      .cls-1 {
        fill: #f3f6e2;
      }

      .cls-1, .cls-2, .cls-3, .cls-4, .cls-5, .cls-6, .cls-7, .cls-8 {
        fill-rule: evenodd;
        stroke-width: 0px;
      }

      .cls-2 {
        fill: #e7ecc7;
      }

      .cls-3 {
        fill: #85762e;
      }

      .cls-4 {
        fill: #fff;
      }

      .cls-5 {
        fill: #b3c849;
      }

      .cls-6 {
        fill: #d3cf65;
      }

      .cls-7 {
        fill: #685c26;
      }

      .cls-8 {
        fill: #3f3916;
      }
    </style>
  </defs>
  <g id="Layer_1-2" data-name="Layer 1">
    <g id="kiwi">
      <g id="kiwi-fruit">
        <path id="kiwi-fruit-2" class="cls-7" d="M69.13,4.37c26.42,9.58,40.16,36.5,32.83,54.6-17.47,43.14-56.75,51.94-77.52,36.18C-2.63,74.61-4.83,55.01,6.31,24.29,14.84.75,42.72-5.21,69.13,4.37Z"/>
        <path id="kiwi-fruit-1" class="cls-3" d="M69.13,4.37c3.01,1.09,5.85,2.41,8.51,3.91,12.27,13.6,16.29,31.68,9.82,44.19-18.85,36.46-52.12,44.76-72.91,34.13C-2.99,68.94-3.28,50.73,6.31,24.29,14.84.75,42.72-5.21,69.13,4.37Z"/>
        <path id="kiwi-sf1" class="cls-8" d="M49.09,95.84c-.65-.1-1.09-.71-.99-1.36.1-.65.71-1.09,1.36-.99.04,0,14.6,2.48,26.1-9.48.46-.47,1.21-.49,1.68-.03.47.46.49,1.21.03,1.68-12.38,12.86-28.13,10.19-28.18,10.18h0ZM79.24,83.48c.98-1.01,1.16-1.28,1.72-2.09.17-.24.37-.54.61-.87.38-.53.25-1.27-.28-1.65-.53-.38-1.27-.25-1.65.28-.29.4-.47.67-.63.9-.47.68-.63.91-1.47,1.79-.45.47-.44,1.22.03,1.68.47.45,1.22.44,1.68-.03Z"/>
        <path id="kiwi-hf1" class="cls-1" d="M5.09,50.7c-.04-.66.46-1.22,1.11-1.26.65-.04,1.22.46,1.26,1.11,0,.04.78,12.99,5.09,19.7.35.55.19,1.29-.36,1.64-.55.35-1.29.19-1.64-.36-4.65-7.23-5.46-20.8-5.46-20.84Z"/>
      </g>
      <g id="kiwi-slice">
        <path id="kiwi-slice-1" class="cls-5" d="M66.65,7.79c22.9,8.3,36.59,28.49,30.57,45.09s-29.46,23.33-52.37,15.02C21.95,59.6,8.27,39.41,14.29,22.81,20.31,6.21,43.75-.51,66.65,7.79Z"/>
        <path id="kiwi-slice-2" class="cls-2" d="M60.49,24.17c10.21,4.97,23.32,12.55,18.29,22.91-5.03,10.35-23.33,7.41-33.54,2.45-10.21-4.96-16.3-14.98-12.7-22.38,3.6-7.4,17.74-7.94,27.95-2.97Z"/>
        <path id="kiwi-slice-3" class="cls-6" d="M59.19,30.25c6.02,3.2,13.74,8.05,10.49,14.16-3.25,6.11-14.17,3.95-20.2.74-6.02-3.2-9.47-9.35-7.14-13.72,2.32-4.37,10.83-4.38,16.86-1.18Z"/>
        <path id="kiwi-spokes" class="cls-3" d="M61.58,10.65c.16-.63.81-1.02,1.45-.85.63.16,1.02.81.85,1.45l-4.02,15.5c-.16.63-.81,1.02-1.45.85-.64-.16-1.02-.81-.85-1.45l4.02-15.5ZM67.53,29.17c-.42.5-.36,1.25.14,1.67.5.42,1.25.36,1.67-.14l4.8-5.71c.42-.5.36-1.25-.14-1.67-.5-.42-1.25-.36-1.67.14l-4.8,5.71ZM42.41,22.83c.11.65.72,1.08,1.37.97.64-.11,1.08-.72.97-1.37l-.99-5.75c-.11-.64-.72-1.08-1.37-.97-.65.11-1.08.72-.97,1.37l.99,5.75ZM39.37,32.5c.6.27,1.3,0,1.57-.6.27-.6,0-1.3-.6-1.57l-20.12-8.89c-.6-.27-1.3,0-1.57.6-.27.6,0,1.3.6,1.57l20.12,8.89ZM37.39,41.73c.57-.33.76-1.06.42-1.63-.33-.57-1.06-.75-1.63-.42l-5.83,3.43c-.57.33-.76,1.06-.42,1.63.33.57,1.06.76,1.63.42l5.83-3.43ZM40.24,59.76c-.3.58-.07,1.3.51,1.6.58.3,1.3.07,1.6-.51l7.38-14.2c.3-.58.07-1.3-.51-1.6-.58-.3-1.3-.07-1.6.51l-7.38,14.2ZM76.63,65.55c.24.61.93.9,1.54.66.61-.24.9-.93.66-1.54l-5.94-14.87c-.24-.61-.93-.9-1.54-.66-.61.24-.9.93-.66,1.54l5.94,14.87ZM56.63,58.89c-.21.62.13,1.3.75,1.5.62.21,1.3-.13,1.5-.75l2.16-6.41c.21-.62-.13-1.3-.75-1.5-.62-.21-1.3.13-1.5.75l-2.16,6.41ZM73.14,35.67c-.6.27-.87.97-.6,1.57.27.6.97.87,1.57.6l14.6-6.56c.6-.27.87-.97.6-1.57-.27-.6-.97-.87-1.57-.6l-14.6,6.56ZM86.98,50.55c.57.33,1.29.15,1.63-.42.33-.57.15-1.29-.42-1.63l-5.82-3.44c-.56-.33-1.29-.15-1.63.42-.33.57-.15,1.29.42,1.63l5.82,3.44Z"/>
        <path id="kiwi-hl1" class="cls-4" d="M26.29,15.66c-.49.44-1.24.41-1.68-.08-.44-.49-.4-1.24.08-1.68,3.16-2.87,7.21-4.53,11.79-5.5,4.47-.95,9.43-1.22,14.54-1.31.66-.01,1.2.51,1.21,1.17.01.66-.51,1.2-1.17,1.21-4.99.09-9.82.35-14.1,1.26-4.18.88-7.85,2.38-10.67,4.94Z"/>
      </g>
    </g>
  </g>
</svg>