<?xml version="1.0" encoding="UTF-8"?>
<svg id="Layer_2" data-name="Layer 2" xmlns="http://www.w3.org/2000/svg" viewBox="0 0 136.95 135">
  <defs>
    <style>
      .cls-1 {
        fill: #f3f6e2;
      }

      .cls-1, .cls-2, .cls-3, .cls-4, .cls-5, .cls-6, .cls-7, .cls-8 {
        fill-rule: evenodd;
        stroke-width: 0px;
      }

      .cls-2 {
        fill: #e7ecc7;
      }

      .cls-3 {
        fill: #85762e;
      }

      .cls-4 {
        fill: #fff;
      }

      .cls-5 {
        fill: #b3c849;
      }

      .cls-6 {
        fill: #d3cf65;
      }

      .cls-7 {
        fill: #685c26;
      }

      .cls-8 {
        fill: #3f3916;
      }
    </style>
  </defs>
  <g id="Layer_1-2" data-name="Layer 1">
    <g id="kiwi">
      <g id="kiwi-fruit">
        <path id="kiwi-fruit-2" class="cls-7" d="M91.11,5.76c34.81,12.62,52.92,48.1,43.26,71.96-23.02,56.86-74.79,68.44-102.17,47.67C-3.47,98.33-6.37,72.49,8.31,32.01,19.56.98,56.3-6.86,91.11,5.76Z"/>
        <path id="kiwi-fruit-1" class="cls-3" d="M91.11,5.76c3.96,1.43,7.7,3.17,11.22,5.15,16.17,17.93,21.46,41.75,12.94,58.24-24.84,48.06-68.69,58.98-96.09,44.98C-3.93,90.86-4.33,66.86,8.31,32.01,19.56.98,56.3-6.86,91.11,5.76Z"/>
        <path id="kiwi-sf1" class="cls-8" d="M64.69,126.31c-.85-.13-1.44-.93-1.31-1.79.13-.85.93-1.44,1.79-1.31.06,0,19.24,3.26,34.4-12.5.6-.62,1.59-.64,2.21-.04.62.6.64,1.59.04,2.21-16.31,16.95-37.07,13.43-37.13,13.42h0ZM104.42,110.02c1.29-1.34,1.53-1.69,2.26-2.75.22-.32.49-.71.8-1.15.5-.7.33-1.68-.37-2.18-.7-.5-1.68-.33-2.18.37-.38.53-.62.89-.83,1.19-.62.9-.83,1.2-1.94,2.35-.6.62-.58,1.61.04,2.21.62.6,1.61.58,2.21-.04Z"/>
        <path id="kiwi-hf1" class="cls-1" d="M6.71,66.82c-.05-.86.6-1.6,1.47-1.66.86-.05,1.61.6,1.66,1.47,0,.05,1.02,17.12,6.71,25.96.47.73.25,1.69-.47,2.16-.73.47-1.69.25-2.16-.47-6.13-9.53-7.2-27.41-7.2-27.46Z"/>
      </g>
      <g id="kiwi-slice">
        <path id="kiwi-slice-1" class="cls-5" d="M87.84,10.27c30.18,10.94,48.22,37.55,40.29,59.42-7.93,21.88-38.83,30.74-69.01,19.8C28.93,78.54,10.9,51.94,18.83,30.06,26.76,8.19,57.66-.68,87.84,10.27Z"/>
        <path id="kiwi-slice-2" class="cls-2" d="M79.72,31.85c13.45,6.54,30.73,16.54,24.1,30.19-6.63,13.64-30.74,9.77-44.19,3.23-13.45-6.54-21.48-19.74-16.74-29.49,4.74-9.75,23.38-10.46,36.84-3.92Z"/>
        <path id="kiwi-slice-3" class="cls-6" d="M78,39.87c7.94,4.22,18.1,10.61,13.82,18.66-4.28,8.05-18.68,5.2-26.62.98-7.94-4.22-12.48-12.33-9.41-18.08,3.06-5.76,14.27-5.78,22.21-1.55Z"/>
        <path id="kiwi-spokes" class="cls-3" d="M81.15,14.04c.22-.84,1.07-1.34,1.91-1.12.84.22,1.34,1.07,1.12,1.91l-5.29,20.42c-.22.84-1.07,1.34-1.91,1.12-.84-.22-1.34-1.07-1.12-1.91l5.3-20.42ZM88.99,38.44c-.56.66-.47,1.65.19,2.21.66.56,1.65.47,2.21-.19l6.32-7.52c.56-.66.47-1.65-.19-2.21-.66-.56-1.65-.47-2.21.19l-6.32,7.52ZM55.89,30.08c.15.85.95,1.42,1.8,1.28.85-.14,1.42-.95,1.28-1.8l-1.31-7.58c-.15-.85-.95-1.42-1.8-1.28-.85.15-1.42.95-1.28,1.8l1.31,7.58ZM51.89,42.83c.79.35,1.71,0,2.06-.8.35-.79,0-1.71-.8-2.06l-26.52-11.72c-.79-.35-1.71,0-2.06.8-.35.79,0,1.71.8,2.06l26.52,11.71ZM49.28,54.99c.75-.44,1-1.4.56-2.15-.44-.75-1.4-.99-2.15-.56l-7.69,4.51c-.75.44-1,1.4-.56,2.14.44.75,1.4,1,2.14.56l7.69-4.51ZM53.03,78.76c-.4.77-.1,1.71.67,2.11.77.4,1.71.1,2.11-.67l9.73-18.72c.4-.77.1-1.71-.67-2.11-.77-.4-1.71-.1-2.11.67l-9.73,18.72ZM100.99,86.38c.32.8,1.23,1.19,2.03.87.8-.32,1.19-1.23.87-2.03l-7.82-19.59c-.32-.8-1.23-1.19-2.03-.87-.8.32-1.19,1.23-.87,2.03l7.82,19.59ZM74.64,77.61c-.27.82.17,1.71.99,1.98.82.27,1.71-.17,1.98-.99l2.84-8.45c.27-.82-.17-1.71-.99-1.98-.82-.27-1.71.17-1.98.99l-2.84,8.45ZM96.39,47.01c-.79.36-1.14,1.28-.79,2.07.36.79,1.28,1.14,2.07.79l19.24-8.65c.79-.36,1.14-1.28.79-2.07-.36-.79-1.28-1.14-2.07-.79l-19.24,8.65ZM114.63,66.61c.75.44,1.7.19,2.14-.55.44-.75.19-1.71-.55-2.14l-7.67-4.54c-.74-.44-1.7-.19-2.14.55-.44.75-.19,1.7.55,2.14l7.67,4.54Z"/>
        <path id="kiwi-hl1" class="cls-4" d="M34.65,20.64c-.64.58-1.63.54-2.22-.11-.58-.64-.53-1.63.11-2.22,4.17-3.78,9.5-5.97,15.53-7.24,5.89-1.25,12.43-1.6,19.16-1.73.86-.02,1.58.67,1.59,1.54.02.86-.67,1.58-1.54,1.59-6.58.12-12.94.47-18.58,1.66-5.5,1.16-10.34,3.13-14.06,6.51Z"/>
      </g>
    </g>
  </g>

  <script>
    const svgs = document.querySelector("#kiwi");
    svgs.addEventListener("click",
      function() {
          console.log("You clicked: " + this.id);
      })
  </script>
</svg>