<?xml version="1.0" encoding="UTF-8"?>
<svg id="Layer_2" data-name="Layer 2" xmlns="http://www.w3.org/2000/svg" viewBox="0 0 146.42 135">
  <defs>
    <style>
      .cls-1 {
        fill: #341c0f;
      }

      .cls-1, .cls-2, .cls-3, .cls-4, .cls-5, .cls-6, .cls-7, .cls-8, .cls-9 {
        fill-rule: evenodd;
        stroke-width: 0px;
      }

      .cls-2 {
        fill: #6f2012;
      }

      .cls-3 {
        fill: #fcf7e6;
      }

      .cls-4 {
        fill: #a52a22;
      }

      .cls-5 {
        fill: #e7ecc7;
      }

      .cls-6 {
        fill: #2d421e;
      }

      .cls-7 {
        fill: #809a3c;
      }

      .cls-8 {
        fill: #5e7835;
      }

      .cls-9 {
        fill: #c53827;
      }
    </style>
  </defs>
  <g id="Layer_1-2" data-name="Layer 1">
    <g id="melon">
      <g id="melon-rind">
        <path id="melon-rind-2" class="cls-8" d="M146.31,98.06c2.84,5.6-48.5,65-110.56,20.54C-35.99,67.19,20.96-5.98,29.56.39c15.13,11.2,110.39,85.13,116.75,97.67Z"/>
        <path id="melon-rind-1" class="cls-7" d="M146.31,98.06c.03.06.05.14.07.21-10.89,15.62-55.69,52.24-108.14,14.65C-2.35,83.84-1.75,47.8,7.99,23.13,15.54,7.48,26.21-2.09,29.56.39c15.13,11.2,110.39,85.13,116.75,97.67Z"/>
        <path id="melon-spokes" class="cls-6" d="M17.12,73.15c1.46-1.03,3.48-.68,4.52.78,1.03,1.46.68,3.48-.78,4.52l-9.59,6.76c-1.46,1.03-3.48.68-4.52-.78-1.03-1.46-.68-3.48.78-4.52l9.59-6.76ZM132.14,113.52c.52.73,1.53.91,2.26.4s.91-1.53.4-2.26l-3.01-4.29c-.52-.73-1.53-.91-2.26-.4s-.91,1.53-.4,2.26l3.01,4.29ZM8.99,28.57c-.88-.19-1.74.37-1.93,1.24-.19.88.37,1.74,1.24,1.93l5.12,1.12c.88.19,1.74-.37,1.93-1.24.19-.88-.37-1.74-1.24-1.93l-5.12-1.12ZM3.45,48.61c-1.77.29-2.97,1.95-2.69,3.72.29,1.77,1.95,2.97,3.72,2.69l11.58-1.88c1.77-.29,2.97-1.95,2.69-3.72-.29-1.77-1.95-2.97-3.72-2.69l-11.58,1.88ZM107.77,125.94c.49,1.72,2.29,2.72,4.01,2.23,1.72-.49,2.72-2.29,2.23-4.01l-3.25-11.27c-.49-1.72-2.29-2.72-4.01-2.23-1.72.49-2.72,2.29-2.23,4.01l3.25,11.27ZM28.27,95.87c.59-.67.52-1.7-.15-2.29-.67-.59-1.7-.52-2.29.15l-3.46,3.93c-.59.67-.52,1.7.15,2.29.67.59,1.7.52,2.29-.15l3.46-3.93ZM36.23,114.28c-1.03,1.47-.67,3.49.8,4.52,1.47,1.03,3.49.67,4.52-.8l6.74-9.6c1.03-1.47.67-3.49-.8-4.52-1.47-1.03-3.49-.67-4.52.8l-6.74,9.6ZM19.71,8.18c-.73-.52-1.74-.35-2.26.38-.52.73-.35,1.74.38,2.26l4.26,3.05c.73.52,1.74.35,2.26-.38.52-.73.35-1.74-.38-2.26l-4.26-3.05ZM65.71,128.67c-.56,1.7.36,3.53,2.07,4.09,1.7.56,3.53-.36,4.09-2.07l3.67-11.14c.56-1.7-.36-3.53-2.07-4.09-1.7-.56-3.53.36-4.09,2.07l-3.67,11.14ZM90.05,132.41c-.01.9.7,1.63,1.6,1.64.89.01,1.63-.7,1.64-1.6l.05-5.24c.01-.9-.7-1.63-1.6-1.64-.89-.01-1.63.7-1.64,1.6l-.05,5.24Z"/>
        <path id="melon-rind-3" class="cls-5" d="M140.74,91.32c4.25,8-41.95,56.3-98.01,16.42C-22.06,61.64,27.45-1.28,35.22,4.42c13.67,10.04,101.27,78.9,105.53,86.9Z"/>
      </g>
      <g id="melon-fruit">
        <path id="melon-fruit-2" class="cls-4" d="M46.15,102.86C-13.63,60.32,32.04,2.27,39.21,7.53c11.87,8.72,83.37,63.31,96.18,78.26,8.83,10.29-41.69,50.9-89.25,17.07Z"/>
        <path id="melon-fruit-1" class="cls-9" d="M16.86,62.11C10.52,30.95,34.22,3.86,39.21,7.53c10.98,8.06,72.94,55.35,92.34,74.24-7.69,14.57-49.37,38.07-88.99,9.88-13.18-9.38-21.23-19.51-25.7-29.55Z"/>
        <g id="melon-seeds">
          <path id="melon-seed-8" class="cls-1" d="M46.26,36.39c-4.41-1.83-9.03,1.47-6.2,4.86,1.61,1.93,6.5-2.77,6.2-4.86Z"/>
          <path id="melon-seed-7" class="cls-1" d="M43.96,62.07c-.19,2.96-2.5,5.46-4.42,5.71-5.39.69-.71-9.21,4.42-5.71Z"/>
          <path id="melon-seed-6" class="cls-1" d="M66.88,51.7c1.07,3.52-.89,6.86-3.27,6.78-5.47-.19-.13-7.61,3.27-6.78Z"/>
          <path id="melon-seed-5" class="cls-1" d="M75.27,74.29c-4.77-.15-8.13,4.98-4.08,6.74,1.8.78,4.57-3.03,4.08-6.74Z"/>
          <path id="melon-seed-4" class="cls-1" d="M104.25,89.96c-4.78-.15-7.93,4.57-4.08,6.74,2.19,1.24,5.1-4.89,4.08-6.74Z"/>
          <path id="melon-seed-3" class="cls-1" d="M74.12,94.58c-3.68-.11-6.69,2.77-5.69,4.93,1.8,3.86,7.37-1.88,5.69-4.93Z"/>
          <path id="melon-seed-2" class="cls-1" d="M97.16,66.14c-4.77-.15-7.93,4.57-4.08,6.74,2.19,1.24,5.1-4.89,4.08-6.74Z"/>
          <path id="melon-seed-1" class="cls-1" d="M51.46,84.29c-4.77-.15-7.93,4.57-4.08,6.74,2.19,1.24,5.1-4.89,4.08-6.74Z"/>
        </g>
        <path id="melon-hf1" class="cls-3" d="M38.5,13.9c-.49-.22-.71-.8-.48-1.29.22-.49.8-.71,1.29-.48,7.93,3.62,27.9,20.89,39.63,31.04,1.69,1.46,3.21,2.77,4.64,4,.41.35.46.96.11,1.37-.35.41-.96.46-1.37.11-1.2-1.03-2.83-2.44-4.64-4.01-11.65-10.08-31.49-27.23-39.16-30.74Z"/>
        <path id="melon-sf1" class="cls-2" d="M64.56,108.93c-.49-.21-.72-.79-.51-1.28.21-.49.79-.72,1.28-.51,5.61,2.44,12.47,3.89,19.65,4.07,6.72.17,13.72-.79,20.26-3.09,13.5-4.76,20.76-13.14,20.78-13.17.36-.4.97-.44,1.37-.09.4.35.44.97.09,1.37-.02.03-7.61,8.79-21.6,13.72-6.75,2.38-14,3.37-20.95,3.19-7.44-.18-14.55-1.69-20.38-4.22Z"/>
      </g>
    </g>
  </g>
</svg>