<?xml version="1.0" encoding="UTF-8"?>
<svg id="Layer_2" data-name="Layer 2" xmlns="http://www.w3.org/2000/svg" viewBox="0 0 178.67 164.74">
  <defs>
    <style>
      .cls-1 {
        fill: #341c0f;
      }

      .cls-1, .cls-2, .cls-3, .cls-4, .cls-5, .cls-6, .cls-7, .cls-8, .cls-9 {
        fill-rule: evenodd;
        stroke-width: 0px;
      }

      .cls-2 {
        fill: #6f2012;
      }

      .cls-3 {
        fill: #fcf7e6;
      }

      .cls-4 {
        fill: #a52a22;
      }

      .cls-5 {
        fill: #e7ecc7;
      }

      .cls-6 {
        fill: #2d421e;
      }

      .cls-7 {
        fill: #809a3c;
      }

      .cls-8 {
        fill: #5e7835;
      }

      .cls-9 {
        fill: #c53827;
      }
    </style>
  </defs>
  <g id="Layer_1-2" data-name="Layer 1">
    <g id="melon">
      <g id="melon-rind">
        <path id="melon-rind-2" class="cls-8" d="M178.53,119.66c3.47,6.83-59.18,79.32-134.91,25.06C-43.91,81.99,25.58-7.3,36.07.47c18.46,13.67,134.7,103.89,142.46,119.18Z"/>
        <path id="melon-rind-1" class="cls-7" d="M178.53,119.66c.04.08.06.17.08.26-13.29,19.06-67.95,63.75-131.96,17.88C-2.87,102.31-2.13,58.33,9.75,28.23,18.97,9.13,31.99-2.55,36.07.47c18.46,13.67,134.7,103.89,142.46,119.18Z"/>
        <path id="melon-spokes" class="cls-6" d="M20.89,89.26c1.78-1.26,4.25-.83,5.51.95,1.26,1.78.83,4.25-.95,5.51l-11.7,8.25c-1.78,1.26-4.25.83-5.51-.95-1.26-1.78-.83-4.25.95-5.51l11.7-8.25ZM161.25,138.53c.63.9,1.87,1.11,2.76.48s1.11-1.87.48-2.76l-3.68-5.23c-.63-.9-1.87-1.11-2.76-.48s-1.11,1.87-.48,2.76l3.68,5.23ZM10.98,34.86c-1.07-.23-2.12.45-2.35,1.52-.23,1.07.45,2.12,1.52,2.36l6.25,1.37c1.07.23,2.12-.45,2.35-1.52.23-1.07-.45-2.12-1.52-2.36l-6.25-1.37ZM4.21,59.31c-2.16.35-3.63,2.38-3.28,4.54.35,2.16,2.38,3.63,4.54,3.28l14.13-2.29c2.16-.35,3.63-2.38,3.28-4.54-.35-2.16-2.38-3.63-4.54-3.28l-14.13,2.29ZM131.51,153.68c.6,2.1,2.79,3.32,4.9,2.72,2.1-.6,3.32-2.79,2.72-4.9l-3.96-13.76c-.6-2.1-2.79-3.32-4.9-2.72-2.1.6-3.32,2.79-2.72,4.9l3.96,13.76ZM34.49,116.99c.72-.82.64-2.07-.18-2.79-.82-.72-2.07-.64-2.8.18l-4.23,4.8c-.72.82-.64,2.07.18,2.79.82.72,2.07.64,2.79-.18l4.23-4.8ZM44.21,139.45c-1.25,1.79-.82,4.26.97,5.51,1.79,1.25,4.26.82,5.51-.98l8.23-11.72c1.25-1.79.82-4.26-.97-5.51-1.79-1.25-4.26-.82-5.51.97l-8.23,11.72ZM24.05,9.98c-.89-.64-2.13-.43-2.76.46-.63.89-.43,2.13.46,2.76l5.2,3.72c.89.63,2.13.43,2.76-.46.63-.89.43-2.13-.46-2.76l-5.2-3.72ZM80.19,157.01c-.68,2.08.44,4.31,2.52,5,2.08.68,4.31-.45,5-2.52l4.48-13.6c.68-2.08-.44-4.31-2.52-5-2.07-.68-4.31.44-4.99,2.52l-4.48,13.6ZM109.89,161.58c-.01,1.09.86,1.99,1.95,2,1.09.01,1.99-.86,2-1.95l.06-6.39c.01-1.09-.86-1.99-1.95-2-1.09-.02-1.99.86-2,1.95l-.06,6.39Z"/>
        <path id="melon-rind-3" class="cls-5" d="M171.75,111.44c5.19,9.76-51.2,68.7-119.6,20.03C-26.92,75.22,33.49-1.57,42.97,5.4c16.68,12.25,123.58,96.28,128.77,106.04Z"/>
      </g>
      <g id="melon-fruit">
        <path id="melon-fruit-2" class="cls-4" d="M56.32,125.51C-16.64,73.61,39.1,2.77,47.85,9.19c14.48,10.64,101.73,77.26,117.37,95.5,10.77,12.55-50.88,62.11-108.91,20.83Z"/>
        <path id="melon-fruit-1" class="cls-9" d="M20.57,75.79C12.84,37.77,41.75,4.71,47.85,9.19c13.39,9.84,89.01,67.55,112.68,90.6-9.38,17.78-60.24,46.46-108.6,12.06-16.08-11.44-25.9-23.8-31.36-36.06Z"/>
        <g id="melon-seeds">
          <path id="melon-seed-8" class="cls-1" d="M56.45,44.4c-5.39-2.23-11.02,1.8-7.56,5.94,1.97,2.36,7.93-3.38,7.56-5.94Z"/>
          <path id="melon-seed-7" class="cls-1" d="M53.64,75.74c-.23,3.61-3.05,6.67-5.39,6.97-6.58.85-.86-11.24,5.39-6.97Z"/>
          <path id="melon-seed-6" class="cls-1" d="M81.61,63.09c1.3,4.29-1.09,8.37-3.99,8.27-6.68-.23-.16-9.29,3.99-8.27Z"/>
          <path id="melon-seed-5" class="cls-1" d="M91.86,90.66c-5.83-.18-9.92,6.07-4.98,8.23,2.19.96,5.57-3.69,4.98-8.23Z"/>
          <path id="melon-seed-4" class="cls-1" d="M127.22,109.78c-5.83-.18-9.67,5.57-4.98,8.23,2.68,1.51,6.23-5.96,4.98-8.23Z"/>
          <path id="melon-seed-3" class="cls-1" d="M90.45,115.42c-4.49-.14-8.17,3.38-6.94,6.01,2.19,4.71,9-2.29,6.94-6.01Z"/>
          <path id="melon-seed-2" class="cls-1" d="M118.57,80.7c-5.83-.18-9.67,5.57-4.98,8.22,2.68,1.51,6.23-5.96,4.98-8.22Z"/>
          <path id="melon-seed-1" class="cls-1" d="M62.8,102.86c-5.83-.18-9.67,5.57-4.98,8.23,2.68,1.51,6.23-5.96,4.98-8.23Z"/>
        </g>
        <path id="melon-hf1" class="cls-3" d="M46.98,16.96c-.6-.27-.86-.97-.59-1.57.27-.6.97-.86,1.57-.59,9.68,4.42,34.04,25.49,48.36,37.87,2.07,1.79,3.91,3.39,5.66,4.88.5.43.56,1.17.13,1.67-.43.5-1.17.56-1.67.13-1.47-1.26-3.45-2.97-5.67-4.89-14.22-12.3-38.42-33.23-47.79-37.51Z"/>
        <path id="melon-sf1" class="cls-2" d="M78.78,132.92c-.6-.26-.88-.96-.62-1.56.26-.6.96-.88,1.56-.62,6.85,2.97,15.21,4.74,23.98,4.96,8.2.2,16.75-.96,24.72-3.77,16.47-5.81,25.33-16.04,25.36-16.07.43-.49,1.18-.54,1.68-.11.49.43.54,1.18.11,1.68-.03.03-9.29,10.73-26.36,16.75-8.24,2.91-17.08,4.11-25.56,3.9-9.07-.22-17.75-2.06-24.86-5.15Z"/>
      </g>
    </g>
  </g>
</svg>