<?xml version="1.0" encoding="UTF-8"?>
<svg id="Layer_2" data-name="Layer 2" xmlns="http://www.w3.org/2000/svg" viewBox="0 0 90.35 90.88">
  <defs>
    <style>
      .cls-1 {
        fill: #fcf7e6;
      }

      .cls-1, .cls-2, .cls-3, .cls-4, .cls-5 {
        fill-rule: evenodd;
        stroke-width: 0px;
      }

      .cls-2 {
        fill: #dc9927;
      }

      .cls-3 {
        fill: #f7e8a9;
      }

      .cls-4 {
        fill: #cc7028;
      }

      .cls-5 {
        fill: #e6ba24;
      }
    </style>
  </defs>
  <g id="Layer_1-2" data-name="Layer 1">
    <g id="passfr">
      <g id="passfr-skin">
        <path class="cls-2" d="M36.99.96c27.83-4.99,49.2,9.81,52.89,37.42,3.69,27.61-14.4,49.25-42.62,52.21-28.22,2.96-39.8-20.08-43.92-41.27C-.79,28.12,9.16,5.95,36.99.96Z"/>
        <path class="cls-3" d="M33.22,5.52c25.32-1.34,45.74,9.79,49.22,35.85,3.48,26.06-13.59,46.48-40.22,49.27C15.58,93.43,4.66,71.69.76,51.68-3.13,31.68,7.9,6.86,33.22,5.52Z"/>
      </g>
      <g id="passfr-fruit">
        <path id="passfr-fruit-1" class="cls-5" d="M40.12,38.66c2.65-.14,5.05.41,6.85,1.72,1.68,1.22,2.82,3.08,3.16,5.64.02.13.03.23.04.29.27,2.54-.43,4.8-1.84,6.52-1.41,1.71-3.51,2.88-6.07,3.22-.14.02-.24.03-.32.04-2.42.25-4.23-.48-5.56-1.73-1.67-1.57-2.56-3.93-3-6.18-.07-.38-.12-.77-.14-1.18-.09-1.77.34-3.61,1.3-5.11.98-1.53,2.49-2.7,4.52-3.1.34-.06.69-.11,1.07-.13h0ZM34.91,8.83c2.35-.45,4.28-.39,5.85.06,2.58.74,4.18,2.51,5.07,4.85.86,2.25,1.04,5.03.79,7.88-.45,5.15-2.32,10.62-4.09,13.7-.48.84-1.47,1.65-2.65,1.99-.97.29-2.08.27-3.13-.29-2.55-1.35-6.38-5.6-8.8-10.39-1.27-2.52-2.16-5.2-2.28-7.71-.13-2.58.53-4.98,2.4-6.86,1.48-1.49,3.69-2.62,6.85-3.23h0ZM66.29,17.83c-2.65-1.82-5.02-2.61-7.11-2.61-2.64,0-4.82,1.2-6.57,3.11-1.7,1.85-2.98,4.37-3.88,7.04-1.72,5.09-2.06,10.8-1.22,13.56.35,1.15,1.11,1.95,2,2.44,1.07.59,2.34.73,3.28.49,3.43-.9,8.63-3.41,12.62-6.71,2.21-1.83,4.06-3.9,5.06-6.1,1.04-2.27,1.17-4.65-.11-7.01-.78-1.44-2.1-2.85-4.07-4.21h0ZM80.08,52.08c-.39,2.36-1.12,4.15-2.09,5.47-1.59,2.16-3.81,3.05-6.3,3.07-2.41.02-5.08-.77-7.67-2-4.68-2.22-9.16-5.86-11.43-8.59-.62-.74-1.03-1.95-.95-3.17.07-1.01.47-2.04,1.36-2.84,2.15-1.93,7.47-4.05,12.8-4.65,2.8-.32,5.62-.22,8.02.53,2.47.77,4.49,2.23,5.61,4.63.88,1.9,1.18,4.37.65,7.55h0ZM63.81,80.58c2.71-1.74,4.34-3.63,5.15-5.56,1.03-2.44.75-4.91-.34-7.26-1.06-2.28-2.88-4.44-5-6.3-4.03-3.54-9.17-6.06-12.04-6.35-1.19-.12-2.22.27-3.02.9-.96.76-1.58,1.88-1.71,2.84-.49,3.51-.18,9.28,1.33,14.23.83,2.74,2.04,5.25,3.67,7.02,1.7,1.83,3.84,2.88,6.51,2.6,1.63-.17,3.44-.84,5.45-2.13h0ZM38.76,86.13c-1.59.4-3.52.38-5.85-.15-3.13-.72-5.31-1.94-6.73-3.48-1.79-1.94-2.37-4.37-2.15-6.94.22-2.5,1.2-5.15,2.56-7.62,2.59-4.71,6.57-8.82,9.17-10.07,1.08-.52,2.18-.5,3.14-.18,1.16.39,2.12,1.23,2.57,2.09,1.66,3.14,3.32,8.67,3.59,13.83.15,2.86-.13,5.63-1.07,7.85-.97,2.3-2.64,4.01-5.24,4.66h0ZM10.37,69c2.07,1.71,4.43,2.03,6.86,1.45,2.35-.56,4.74-1.98,6.95-3.8,4-3.29,7.46-7.91,9-11.1.42-.87.53-2.15.15-3.31-.31-.97-.95-1.87-2.01-2.43-2.55-1.35-8.22-2.11-13.55-1.4-2.79.37-5.5,1.15-7.65,2.47-2.21,1.35-3.81,3.25-4.31,5.85-.39,2.06-.08,4.53,1.2,7.48.95,2.19,2.09,3.75,3.35,4.8h0ZM7.22,29.02c-1.46,2.87-1.92,5.32-1.65,7.39.34,2.62,1.83,4.62,3.96,6.1,2.06,1.44,4.73,2.38,7.49,2.92,5.27,1.03,10.98.61,13.6-.58,1.09-.49,1.78-1.35,2.15-2.3.44-1.14.41-2.42.05-3.31-1.34-3.28-4.52-8.11-8.32-11.63-2.1-1.95-4.41-3.51-6.71-4.21-2.39-.73-4.77-.55-6.93,1.03-1.32.97-2.55,2.46-3.63,4.59Z"/>
        <g id="passfr-seeds">
          <path id="passfr-seed-3" class="cls-4" d="M36.27,48.7c0-.46-8.74-5.42-9.53-.31-.79,5.11,9.54,1.22,9.53.31Z"/>
          <path id="passfr-seed-2" class="cls-4" d="M40.79,38.42c.43-.15,2.43-9.99-2.67-9.15-5.1.84,1.81,9.45,2.67,9.15Z"/>
          <path id="passfr-seed-1" class="cls-4" d="M45.37,53.46c-.39.23-.24,10.28,4.56,8.37,4.81-1.91-3.78-8.85-4.56-8.37Z"/>
        </g>
        <g id="passfr-hf">
          <path class="cls-1" d="M32.5,26.52c.32.57.11,1.29-.46,1.61-.57.32-1.3.11-1.61-.46-.02-.04-8.84-15.65,5.51-16.45.65-.04,1.21.47,1.25,1.12.04.65-.47,1.21-1.12,1.25-10.53.59-3.58,12.9-3.56,12.93Z"/>
          <path class="cls-1" d="M52.52,30.12c-.1.65-.7,1.09-1.35,1-.65-.1-1.09-.7-1-1.35,0-.05,2.57-17.79,14.42-9.66.54.37.68,1.11.31,1.65-.37.54-1.11.68-1.65.31-8.69-5.97-10.72,8.01-10.73,8.05Z"/>
          <path class="cls-1" d="M21.4,41.35c.65.07,1.12.66,1.05,1.31-.07.65-.66,1.12-1.31,1.05-.05,0-17.89-1.85-10.24-14.02.35-.56,1.08-.73,1.64-.38.56.35.73,1.08.38,1.64-5.61,8.93,8.44,10.39,8.48,10.39Z"/>
          <path class="cls-1" d="M24.58,61.68c.47-.46,1.22-.44,1.68.03.45.47.44,1.22-.03,1.68-.04.04-12.88,12.55-17.32-1.13-.2-.62.14-1.29.76-1.49.62-.2,1.29.14,1.5.77,3.26,10.03,13.38.17,13.41.14Z"/>
          <path class="cls-1" d="M39.91,69.59c-.16-.64.23-1.28.87-1.44.64-.16,1.28.23,1.44.87.01.05,4.48,17.41-9.59,14.46-.64-.13-1.05-.76-.92-1.4.13-.64.76-1.05,1.4-.92,10.32,2.16,6.8-11.53,6.79-11.57Z"/>
          <path class="cls-1" d="M56.99,64.42c-.6-.26-.88-.96-.62-1.56.26-.6.96-.88,1.56-.62.05.02,16.55,7.03,5.66,16.41-.5.43-1.25.37-1.67-.12-.43-.5-.37-1.25.12-1.67,7.99-6.88-5.01-12.41-5.05-12.43Z"/>
          <path class="cls-1" d="M63,45c-.63.18-1.28-.19-1.46-.82-.18-.63.19-1.28.82-1.46.05-.01,17.28-4.96,14.72,9.18-.12.64-.73,1.07-1.38.96-.64-.12-1.07-.73-.96-1.38,1.88-10.38-11.71-6.49-11.75-6.48Z"/>
          <path class="cls-1" d="M39.23,41.34c.46-.46,1.22-.46,1.68,0,.46.46.46,1.22,0,1.68-.02.02-6.41,6.26,2.55,8.76.63.17,1,.83.83,1.46-.17.63-.83,1-1.46.83-12.94-3.6-3.63-12.7-3.6-12.73Z"/>
        </g>
      </g>
    </g>
  </g>
</svg>