<?xml version="1.0" encoding="UTF-8"?>
<svg id="Layer_2" data-name="Layer 2" xmlns="http://www.w3.org/2000/svg" viewBox="0 0 134.21 135">
  <defs>
    <style>
      .cls-1 {
        fill: #fcf7e6;
      }

      .cls-1, .cls-2, .cls-3, .cls-4, .cls-5 {
        fill-rule: evenodd;
        stroke-width: 0px;
      }

      .cls-2 {
        fill: #dc9927;
      }

      .cls-3 {
        fill: #f7e8a9;
      }

      .cls-4 {
        fill: #cc7028;
      }

      .cls-5 {
        fill: #e6ba24;
      }
    </style>
  </defs>
  <g id="Layer_1-2" data-name="Layer 1">
    <g id="passfr">
      <g id="passfr-skin">
        <path class="cls-2" d="M54.94,1.43c41.33-7.42,73.09,14.57,78.56,55.59,5.47,41.02-21.39,73.16-63.31,77.55-41.92,4.4-59.12-29.83-65.25-61.31C-1.18,41.77,13.61,8.84,54.94,1.43Z"/>
        <path class="cls-3" d="M49.35,8.2c37.61-1.99,67.94,14.54,73.11,53.25,5.17,38.71-20.18,69.04-59.75,73.19C23.15,138.79,6.92,106.49,1.13,76.78-4.65,47.06,11.73,10.19,49.35,8.2Z"/>
      </g>
      <g id="passfr-fruit">
        <path id="passfr-fruit-1" class="cls-5" d="M59.59,57.42c3.94-.21,7.51.61,10.18,2.56,2.49,1.81,4.19,4.58,4.7,8.37.03.19.05.34.06.44.39,3.77-.64,7.13-2.74,9.69-2.09,2.55-5.22,4.28-9.02,4.78-.2.03-.36.05-.48.06-3.6.38-6.28-.71-8.26-2.58-2.48-2.33-3.8-5.84-4.45-9.18-.11-.56-.18-1.15-.21-1.75-.14-2.62.51-5.36,1.94-7.6,1.45-2.27,3.69-4.02,6.71-4.61.5-.1,1.03-.16,1.59-.19h0ZM51.85,13.12c3.49-.67,6.36-.58,8.69.09,3.83,1.1,6.21,3.73,7.53,7.2,1.28,3.35,1.54,7.47,1.17,11.71-.67,7.66-3.44,15.78-6.07,20.35-.72,1.25-2.19,2.45-3.93,2.96-1.44.43-3.08.4-4.66-.43-3.79-2-9.48-8.32-13.07-15.44-1.88-3.74-3.2-7.72-3.39-11.45-.2-3.83.79-7.4,3.56-10.19,2.19-2.21,5.48-3.9,10.17-4.8h0ZM98.47,26.49c-3.94-2.71-7.45-3.87-10.56-3.88-3.92-.01-7.16,1.79-9.76,4.62-2.52,2.75-4.43,6.49-5.77,10.46-2.55,7.55-3.05,16.04-1.82,20.14.51,1.71,1.65,2.89,2.96,3.62,1.59.88,3.48,1.08,4.87.72,5.1-1.33,12.82-5.07,18.75-9.96,3.28-2.71,6.03-5.8,7.52-9.06,1.54-3.37,1.75-6.91-.16-10.41-1.16-2.14-3.12-4.24-6.04-6.25h0ZM118.96,77.37c-.58,3.5-1.66,6.16-3.1,8.12-2.36,3.21-5.65,4.52-9.36,4.56-3.58.03-7.54-1.15-11.39-2.97-6.95-3.29-13.61-8.7-16.98-12.75-.92-1.1-1.53-2.9-1.41-4.71.1-1.5.7-3.03,2.02-4.22,3.19-2.86,11.09-6.01,19.01-6.9,4.16-.47,8.35-.32,11.92.79,3.67,1.15,6.67,3.32,8.33,6.88,1.31,2.82,1.75,6.5.96,11.21h0ZM94.79,119.7c4.02-2.59,6.45-5.39,7.65-8.25,1.53-3.62,1.11-7.3-.5-10.78-1.57-3.39-4.28-6.59-7.42-9.35-5.99-5.27-13.63-9-17.89-9.44-1.77-.18-3.3.4-4.48,1.34-1.43,1.13-2.35,2.79-2.55,4.22-.73,5.22-.26,13.78,1.97,21.14,1.24,4.07,3.02,7.8,5.46,10.43,2.52,2.72,5.71,4.27,9.67,3.86,2.42-.25,5.11-1.24,8.09-3.16h0ZM57.57,127.95c-2.36.59-5.23.57-8.69-.22-4.66-1.07-7.89-2.87-10-5.16-2.66-2.89-3.53-6.49-3.19-10.31.32-3.72,1.79-7.65,3.81-11.32,3.84-6.99,9.76-13.1,13.62-14.96,1.6-.77,3.24-.74,4.67-.26,1.72.58,3.15,1.83,3.82,3.1,2.47,4.66,4.94,12.88,5.33,20.55.22,4.25-.19,8.37-1.59,11.66-1.44,3.42-3.92,5.96-7.78,6.92h0ZM15.4,102.49c3.07,2.54,6.58,3.02,10.19,2.15,3.48-.84,7.04-2.94,10.33-5.65,5.95-4.88,11.09-11.75,13.37-16.49.62-1.29.78-3.19.23-4.92-.46-1.43-1.41-2.77-2.99-3.6-3.79-2-12.22-3.14-20.12-2.08-4.15.55-8.18,1.71-11.36,3.66-3.28,2-5.67,4.83-6.41,8.69-.59,3.05-.12,6.73,1.79,11.11,1.42,3.25,3.1,5.57,4.98,7.12h0ZM10.73,43.11c-2.17,4.26-2.85,7.9-2.45,10.98.51,3.89,2.72,6.86,5.88,9.06,3.07,2.14,7.02,3.54,11.12,4.34,7.83,1.53,16.3.9,20.21-.87,1.62-.73,2.65-2.01,3.2-3.42.66-1.69.61-3.59.07-4.92-2-4.88-6.72-12.04-12.36-17.27-3.12-2.9-6.54-5.21-9.97-6.26-3.55-1.08-7.08-.81-10.3,1.54-1.97,1.44-3.79,3.65-5.4,6.81Z"/>
        <g id="passfr-seeds">
          <path id="passfr-seed-3" class="cls-4" d="M53.88,72.35c0-.68-12.99-8.05-14.16-.45-1.17,7.59,14.17,1.81,14.16.45Z"/>
          <path id="passfr-seed-2" class="cls-4" d="M60.6,57.07c.65-.22,3.61-14.85-3.97-13.6-7.58,1.25,2.68,14.03,3.97,13.6Z"/>
          <path id="passfr-seed-1" class="cls-4" d="M67.39,79.41c-.58.35-.36,15.27,6.78,12.44,7.14-2.83-5.61-13.14-6.78-12.44Z"/>
        </g>
        <g id="passfr-hf">
          <path class="cls-1" d="M48.28,39.39c.47.85.16,1.92-.69,2.39-.85.47-1.93.16-2.4-.69-.04-.07-13.13-23.25,8.19-24.44.97-.05,1.8.69,1.86,1.67.05.97-.69,1.8-1.67,1.86-15.64.87-5.32,19.16-5.29,19.21Z"/>
          <path class="cls-1" d="M78.02,44.74c-.15.96-1.04,1.63-2.01,1.48-.96-.15-1.62-1.05-1.48-2.01.01-.08,3.82-26.43,21.42-14.34.8.55,1.01,1.65.46,2.45-.55.8-1.65,1.01-2.45.46-12.92-8.87-15.93,11.91-15.94,11.97Z"/>
          <path class="cls-1" d="M31.78,61.43c.97.1,1.67.97,1.57,1.94-.1.97-.97,1.67-1.94,1.57-.08,0-26.57-2.74-15.21-20.82.52-.83,1.61-1.08,2.43-.56.83.52,1.08,1.61.56,2.43-8.34,13.26,12.53,15.43,12.59,15.44Z"/>
          <path class="cls-1" d="M36.52,91.62c.7-.68,1.82-.66,2.5.04.67.7.66,1.82-.05,2.5-.05.05-19.13,18.64-25.73-1.67-.3-.93.21-1.92,1.14-2.22.93-.3,1.92.21,2.22,1.14,4.84,14.9,19.88.26,19.92.22Z"/>
          <path class="cls-1" d="M59.28,103.37c-.23-.95.35-1.9,1.29-2.14.95-.23,1.9.35,2.14,1.29.02.07,6.66,25.86-14.24,21.48-.95-.2-1.56-1.13-1.36-2.09.2-.95,1.13-1.56,2.09-1.36,15.33,3.21,10.11-17.13,10.09-17.19Z"/>
          <path class="cls-1" d="M84.66,95.69c-.9-.39-1.31-1.43-.92-2.32.39-.89,1.43-1.31,2.32-.92.07.03,24.58,10.44,8.4,24.37-.74.64-1.85.55-2.49-.18-.64-.74-.55-1.85.18-2.49,11.87-10.22-7.44-18.44-7.5-18.46Z"/>
          <path class="cls-1" d="M93.58,66.85c-.94.26-1.91-.29-2.17-1.23-.26-.94.29-1.91,1.22-2.17.07-.02,25.66-7.37,21.87,13.64-.17.96-1.09,1.59-2.05,1.42-.96-.17-1.59-1.09-1.42-2.05,2.79-15.42-17.4-9.64-17.45-9.62Z"/>
          <path class="cls-1" d="M58.28,61.41c.69-.69,1.81-.69,2.5,0,.69.69.69,1.81,0,2.5-.03.03-9.52,9.31,3.79,13.01.94.26,1.49,1.23,1.23,2.17-.26.94-1.23,1.49-2.17,1.23-19.22-5.35-5.39-18.87-5.35-18.91Z"/>
        </g>
      </g>
    </g>
  </g>
</svg>