<?xml version="1.0" encoding="UTF-8"?>
<svg id="Layer_2" data-name="Layer 2" xmlns="http://www.w3.org/2000/svg" viewBox="0 0 106.78 135">
  <defs>
    <style>
      .cls-1 {
        fill: #341c0f;
      }

      .cls-1, .cls-2, .cls-3, .cls-4, .cls-5 {
        fill-rule: evenodd;
        stroke-width: 0px;
      }

      .cls-2 {
        fill: #fcf7e6;
      }

      .cls-3 {
        fill: #a52a22;
      }

      .cls-4 {
        fill: #a7b939;
      }

      .cls-5 {
        fill: #c53827;
      }
    </style>
  </defs>
  <g id="Layer_1-2" data-name="Layer 1">
    <g id="strawb">
      <g id="strawb-fruit">
        <path id="strawb-fruit-1" class="cls-5" d="M.09,59.26c-.79,12.92,4.08,30,4.13,38.48.14,25.72,4.74,32.19,24.16,36.62,38.06,8.68,113.67-73.76,44.78-101.34-20.94-8.38-41.52-12.17-55.44-2.78C9.75,35.61,1.21,40.93.09,59.26Z"/>
        <path id="strawb-fruit-2" class="cls-3" d="M8.86,123.71c3.57,5.6,9.62,8.39,19.51,10.65,37.44,8.54,111.19-71.08,48.05-99.94-16.19,1.75-34.23,6.55-50.33,16.59-4.95,6.61-5.74,10.39,3.66,11.65,9.4,1.26,20.7-3.23,20.7-3.23,0,0,8.81,13.52,16.86,17.73,7.57,3.97,7,6.37,1.55,14.05-8.47,11.93-23.99,30.85-39.12,34.07-8.6,1.83-15.57.61-20.88-1.58Z"/>
        <path id="strawb-hf1" class="cls-2" d="M17.13,37.99c.78-.08,1.48.48,1.56,1.26.08.78-.48,1.48-1.26,1.56-.04,0-13.68,1.08-9.86,38.52.08.78-.49,1.48-1.27,1.56-.78.08-1.48-.49-1.56-1.27C.63,39.34,17.09,38,17.13,37.99h0ZM5.8,86.12c-.08-.78.49-1.48,1.27-1.56.78-.08,1.48.49,1.56,1.27.08.83.15,1.62.21,2.25.13,1.49.17,1.88.74,5.18.13.77-.39,1.51-1.16,1.64-.77.13-1.51-.39-1.64-1.16-.6-3.47-.64-3.87-.77-5.41-.04-.45-.09-1.03-.21-2.22Z"/>
        <g id="strawb-seeds">
          <path id="strawb-seed-8" class="cls-1" d="M36.55,64.3c-12.55,6.38-6.25,13.6-2.1,10.85,3-1.99,3.31-9.16,2.1-10.85Z"/>
          <path id="strawb-seed-7" class="cls-1" d="M46.49,113.23c-13.07,5.24-6.55,13.79-2.17,11.42,3.17-1.72,3.22-9.63,2.17-11.42Z"/>
          <path id="strawb-seed-6" class="cls-1" d="M22.37,106.73c-11.44,8.21-3.6,14.82.08,11.47,2.67-2.42,1.36-9.98-.08-11.47Z"/>
          <path id="strawb-seed-5" class="cls-1" d="M59.36,70.79c-12.08,7.23-4.32,13.8-.37,10.78,2.86-2.19,1.69-9.17.37-10.78Z"/>
          <path id="strawb-seed-4" class="cls-1" d="M45.05,89.93c-11.44,8.21-3.97,15.03-.52,11.45,2.9-3.02,1.97-9.95.52-11.45Z"/>
          <path id="strawb-seed-3" class="cls-1" d="M69.73,97.97c-11.44,8.21-5.13,15.46-1.36,12.21,4.34-3.75,2.81-10.72,1.36-12.21Z"/>
          <path id="strawb-seed-2" class="cls-1" d="M87.51,78.28c-11.44,8.21-3.42,15.23.26,11.88,2.67-2.42,1.18-10.39-.26-11.88Z"/>
          <path id="strawb-seed-1" class="cls-1" d="M23.29,80.95c-11.44,8.21-3.79,14.61-.11,11.26,2.67-2.42,1.56-9.77.11-11.26Z"/>
        </g>
      </g>
      <g id="strawb-leaf">
        <path id="strawb-leaf-1" class="cls-4" d="M74,2.46c-2.59-1.31-7.32-3.52-9.07-1.88-2.54,2.38-2.98,16.83-6.97,16.77-3.06-.05-11.7-.61-22.64,1.65-12.66,2.62-25.82,7.86-26.48,14.76-.4,4.16,11.95,4.16,18.98,3.76,11.66-.67.66,7.54-3.34,13.01-7.99,10.92,2.45,13.66,12.59,9.9,9-3.33,13.73-8.93,18.35-4.66,2.94,2.71,3.58,8.13,8.32,13.5,2.69,3.05,8.09,8.45,13.57,7.64,5.3-.78,3.1-12.82,4.85-20.18,1.7-7.15,9.48,10.74,21.01,11.1,10.36.33-3.02-27.96-22.37-39.95-7.88-4.88-7.96-5.89-8.18-8.16-.47-4.98,5.83-15.03,1.38-17.28Z"/>
        <path id="straw-hl1" class="cls-2" d="M56.92,20.4c.78.02,1.4.68,1.38,1.46-.02.78-.68,1.4-1.46,1.38-.07,0-24.14-.76-38.25,8.48-.66.43-1.54.24-1.97-.41-.43-.66-.24-1.54.41-1.97,14.85-9.72,39.82-8.94,39.89-8.93ZM26.7,53.17c-.25.74.14,1.55.88,1.8.74.25,1.55-.14,1.8-.88,1.08-3.15,5.6-7.21,5.62-7.22.58-.53.63-1.43.1-2.01-.52-.58-1.42-.63-2.01-.1-.01.01-5.08,4.55-6.4,8.41ZM75.43,73.76c.78.07,1.47-.5,1.54-1.29.07-.78-.5-1.47-1.28-1.55-4.43-.41-8.92-9.64-8.94-9.67-.35-.7-1.2-.99-1.9-.64-.7.35-.99,1.2-.64,1.9.02.03,5.19,10.69,11.22,11.24ZM100.4,65.31c.78.08,1.48-.48,1.57-1.26.08-.78-.48-1.48-1.26-1.57-2.94-.32-7.37-6.83-7.38-6.85-.44-.65-1.33-.82-1.98-.37-.65.44-.82,1.33-.37,1.98.02.02,5.17,7.6,9.43,8.07ZM72.87,8.02c.78.1,1.5-.45,1.6-1.23.1-.78-.45-1.5-1.23-1.6-5.16-.7-6.58-2.03-6.59-2.04-.58-.53-1.48-.48-2.01.1-.53.58-.48,1.48.1,2.01,0,0,2.07,1.94,8.12,2.76Z"/>
      </g>
    </g>
  </g>

  <script>
    const svgs = document.querySelector("#strawb");
    svgs.addEventListener("click",
      function() {
          console.log("You clicked: " + this.id);
      })
  </script>
</svg>