<?xml version="1.0" encoding="UTF-8"?>
<svg id="Layer_2" data-name="Layer 2" xmlns="http://www.w3.org/2000/svg" viewBox="0 0 89.19 112.77">
  <defs>
    <style>
      .cls-1 {
        fill: #341c0f;
      }

      .cls-1, .cls-2, .cls-3, .cls-4, .cls-5 {
        fill-rule: evenodd;
        stroke-width: 0px;
      }

      .cls-2 {
        fill: #fcf7e6;
      }

      .cls-3 {
        fill: #a52a22;
      }

      .cls-4 {
        fill: #a7b939;
      }

      .cls-5 {
        fill: #c53827;
      }
    </style>
  </defs>
  <g id="Layer_1-2" data-name="Layer 1">
    <g id="strawb">
      <g id="strawb-fruit">
        <path id="strawb-fruit-1" class="cls-5" d="M.07,49.5c-.66,10.79,3.41,25.06,3.45,32.15.12,21.48,3.96,26.89,20.18,30.59,31.8,7.25,94.95-61.61,37.41-84.65-17.49-7-34.68-10.17-46.31-2.33C8.14,29.75,1.01,34.19.07,49.5Z"/>
        <path id="strawb-fruit-2" class="cls-3" d="M7.4,103.34c2.98,4.68,8.03,7.01,16.3,8.9,31.27,7.13,92.88-59.37,40.14-83.48-13.52,1.46-28.59,5.47-42.04,13.86-4.14,5.52-4.79,8.68,3.06,9.74,7.85,1.05,17.29-2.69,17.29-2.69,0,0,7.36,11.29,14.08,14.81,6.33,3.31,5.85,5.32,1.29,11.74-7.08,9.96-20.04,25.77-32.68,28.46-7.18,1.53-13,.51-17.45-1.32Z"/>
        <path id="strawb-hf1" class="cls-2" d="M14.31,31.73c.65-.07,1.24.4,1.3,1.06.07.65-.4,1.24-1.06,1.3-.03,0-11.43.9-8.24,32.18.07.65-.41,1.24-1.06,1.3-.65.07-1.24-.41-1.3-1.06C.52,32.86,14.27,31.74,14.31,31.73h0ZM4.85,71.94c-.07-.65.41-1.24,1.06-1.3.65-.07,1.24.41,1.3,1.06.07.69.13,1.35.18,1.88.11,1.25.14,1.57.62,4.33.11.65-.33,1.26-.97,1.37-.65.11-1.26-.32-1.37-.97-.5-2.9-.53-3.23-.65-4.52-.03-.38-.08-.86-.18-1.85Z"/>
        <g id="strawb-seeds">
          <path id="strawb-seed-8" class="cls-1" d="M30.53,53.71c-10.48,5.33-5.22,11.36-1.76,9.07,2.51-1.66,2.76-7.65,1.76-9.07Z"/>
          <path id="strawb-seed-7" class="cls-1" d="M38.84,94.58c-10.92,4.38-5.47,11.52-1.82,9.54,2.65-1.43,2.69-8.04,1.82-9.54Z"/>
          <path id="strawb-seed-6" class="cls-1" d="M18.69,89.16c-9.55,6.86-3.01,12.38.07,9.58,2.23-2.02,1.14-8.34-.07-9.58Z"/>
          <path id="strawb-seed-5" class="cls-1" d="M49.59,59.14c-10.09,6.04-3.61,11.53-.31,9,2.39-1.83,1.41-7.66.31-9Z"/>
          <path id="strawb-seed-4" class="cls-1" d="M37.63,75.12c-9.55,6.86-3.31,12.56-.44,9.56,2.42-2.52,1.64-8.31.44-9.56Z"/>
          <path id="strawb-seed-3" class="cls-1" d="M58.24,81.83c-9.55,6.86-4.28,12.92-1.14,10.2,3.63-3.13,2.35-8.95,1.14-10.2Z"/>
          <path id="strawb-seed-2" class="cls-1" d="M73.1,65.39c-9.55,6.86-2.86,12.72.22,9.93,2.23-2.02.99-8.68-.22-9.93Z"/>
          <path id="strawb-seed-1" class="cls-1" d="M19.45,67.62c-9.55,6.86-3.17,12.2-.09,9.41,2.23-2.02,1.3-8.16.09-9.41Z"/>
        </g>
      </g>
      <g id="strawb-leaf">
        <path id="strawb-leaf-1" class="cls-4" d="M61.82,2.06c-2.16-1.09-6.12-2.94-7.58-1.57-2.12,1.99-2.49,14.06-5.82,14.01-2.55-.04-9.77-.51-18.91,1.38-10.57,2.19-21.57,6.57-22.12,12.33-.33,3.48,9.98,3.48,15.86,3.14,9.74-.56.55,6.3-2.79,10.87-6.67,9.12,2.04,11.41,10.52,8.27,7.52-2.79,11.47-7.46,15.33-3.89,2.46,2.27,2.99,6.8,6.95,11.28,2.25,2.55,6.76,7.06,11.34,6.38,4.43-.66,2.59-10.71,4.05-16.86,1.42-5.97,7.92,8.97,17.55,9.27,8.65.28-2.53-23.36-18.69-33.37-6.58-4.08-6.65-4.92-6.83-6.81-.4-4.16,4.87-12.55,1.15-14.43Z"/>
        <path id="straw-hl1" class="cls-2" d="M47.55,17.04c.65.02,1.17.57,1.15,1.22-.02.66-.57,1.17-1.22,1.15-.06,0-20.17-.63-31.95,7.08-.55.36-1.29.2-1.65-.35-.36-.55-.2-1.29.34-1.65,12.4-8.12,33.26-7.46,33.32-7.46ZM22.3,44.41c-.21.62.12,1.29.74,1.51.62.21,1.29-.12,1.51-.74.9-2.63,4.68-6.02,4.69-6.03.49-.44.52-1.19.08-1.68-.44-.49-1.19-.53-1.68-.09-.01.01-4.24,3.8-5.34,7.02ZM63.01,61.62c.65.06,1.23-.42,1.29-1.07.06-.65-.42-1.23-1.07-1.29-3.7-.34-7.45-8.06-7.46-8.08-.29-.59-1-.83-1.59-.54-.59.29-.83,1-.54,1.59.01.03,4.34,8.93,9.37,9.39ZM83.86,54.56c.65.07,1.24-.4,1.31-1.05.07-.65-.4-1.24-1.05-1.31-2.46-.27-6.16-5.7-6.17-5.72-.37-.54-1.11-.68-1.65-.31-.54.37-.68,1.11-.31,1.65.01.02,4.32,6.35,7.88,6.74ZM60.87,6.7c.65.09,1.25-.37,1.33-1.02.08-.65-.37-1.25-1.02-1.34-4.31-.58-5.5-1.7-5.5-1.7-.49-.44-1.24-.4-1.68.08-.44.49-.4,1.24.08,1.68,0,0,1.73,1.62,6.79,2.3Z"/>
      </g>
    </g>
  </g>
</svg>